Coordinates
version=1
nRows=17
nColumns=24
inDegrees=yes

Units are S.I. units (second, meters, Newtons, ...)
Angles are in degrees.

endheader
time	pelvis_tilt	pelvis_list	pelvis_rotation	pelvis_tx	pelvis_ty	pelvis_tz	hip_flexion_r	hip_adduction_r	hip_rotation_r	knee_angle_r	ankle_angle_r	subtalar_angle_r	mtp_angle_r	hip_flexion_l	hip_adduction_l	hip_rotation_l	knee_angle_l	ankle_angle_l	subtalar_angle_l	mtp_angle_l	lumbar_extension	lumbar_bending	lumbar_rotation
      4.64000000	     -8.46926465	     -1.51074105	     -6.74041423	     -1.09044307	     -0.04340361	     -0.27714626	     -6.95874282	      2.90457476	      5.76099815	    -21.88128651	      6.21847917	     12.60211478	     19.67052402	     37.84589449	     -3.10064359	     -1.20392106	    -18.90233882	      2.51853091	     13.75322322	     -9.94750825	      9.03610348	      1.93921867	      6.30682353
      4.64500000	     -8.58455649	     -1.29931701	     -6.69538070	     -1.08280217	     -0.04467677	     -0.27767890	     -6.81368848	      2.48518539	      5.09151674	    -22.74962741	      5.70397084	     13.59797197	     20.82843996	     38.15907211	     -2.77345701	     -1.11170827	    -19.93500518	      1.28177909	     12.88727168	     -9.11460011	      9.32615520	      1.63871163	      6.21338748
      4.65000000	     -8.74799622	     -0.96592137	     -6.80024780	     -1.07514719	     -0.04577413	     -0.27787724	     -6.56469148	      1.96601143	      4.76980518	    -23.69434608	      5.14593102	     14.39660360	     21.63900152	     38.49232880	     -2.47006649	     -1.31964683	    -20.97506703	      0.19503055	     12.13761186	     -8.84473853	      9.69222313	      1.21432293	      6.27527270
      4.65500000	     -8.87022835	     -0.65986724	     -6.74729281	     -1.06738696	     -0.04674384	     -0.27829091	     -6.37633153	      1.44336379	      4.11852216	    -24.57050495	      4.30895967	     15.24657544	     22.80822057	     38.78696674	     -2.06835841	     -1.31009398	    -22.01199948	     -0.91790621	     11.20796523	     -8.55269732	     10.03307469	      0.79503288	      6.23840163
      4.66000000	     -8.99250373	     -0.32604778	     -6.72069578	     -1.05972531	     -0.04760862	     -0.27865715	     -6.12460457	      0.88229993	      3.51313591	    -25.52838184	      3.39844498	     16.11310046	     24.03170406	     39.08018838	     -1.65909873	     -1.31948544	    -23.06285274	     -1.91384641	     10.28631026	     -8.52355715	     10.36149655	      0.34422650	      6.18862987
      4.66500000	     -9.07448737	      0.04295034	     -6.63346626	     -1.05192951	     -0.04832092	     -0.27907490	     -5.93541025	      0.26870241	      2.85441533	    -26.40195602	      2.21454374	     16.87313880	     25.72738797	     39.30888190	     -1.16708684	     -1.29941042	    -24.09651282	     -2.78758557	      9.33622215	     -8.65793266	     10.67570988	     -0.16069437	      6.09814270
      4.67000000	     -9.24812575	      0.39454032	     -6.66959257	     -1.04422104	     -0.04902772	     -0.27939156	     -5.53409173	     -0.34232893	      2.29068764	    -27.50890170	      1.18157511	     17.93411584	     26.41249283	     39.61180247	     -0.77260071	     -1.32197792	    -25.13349410	     -3.43075093	      8.45844003	     -8.98636488	     11.08357308	     -0.58908620	      6.19323539
      4.67500000	     -9.19619434	      0.71407720	     -6.53250943	     -1.03650299	     -0.04942151	     -0.27999562	     -5.42553068	     -0.97515220	      1.48024713	    -28.40379164	     -0.44839614	     18.74280322	     28.60875402	     39.63336737	     -0.22310488	     -1.03250502	    -26.10201339	     -3.92208825	      7.50608441	     -9.51088956	     11.22550548	     -1.03954465	      6.09115201
      4.68000000	     -9.34881997	      1.07483148	     -6.51284736	     -1.02876093	     -0.04997686	     -0.28041422	     -4.98483568	     -1.63128194	      0.86133619	    -29.57455005	     -1.76716687	     19.83130846	     29.32318697	     39.85417848	      0.23295506	     -1.00083331	    -27.05501398	     -4.26658568	      6.80725416	     -9.77616956	     11.61760229	     -1.47450785	      6.13520229
      4.68500000	     -9.25483757	      1.38460608	     -6.42539927	     -1.02107998	     -0.05016967	     -0.28100675	     -4.84268166	     -2.27574581	      0.18874357	    -30.54124645	     -3.70614812	     20.54782670	     31.46060616	     39.74258100	      0.77492016	     -0.70675807	    -27.90885891	     -4.44914151	      5.93603303	    -10.20130249	     11.70972008	     -1.89366693	      6.09090191
      4.69000000	     -9.29962230	      1.71147903	     -6.38565020	     -1.01339278	     -0.05048631	     -0.28156280	     -4.46523352	     -2.92923152	     -0.37991034	    -31.70112732	     -5.49159331	     21.42576675	     32.62967270	     39.74689253	      1.27356602	     -0.52342586	    -28.71825217	     -4.47349177	      5.29135064	    -10.34985424	     11.96818185	     -2.28037275	      6.14092716
      4.69500000	     -9.29877800	      2.04573681	     -6.34107684	     -1.00571504	     -0.05071351	     -0.28212003	     -4.10652915	     -3.59459416	     -0.89605775	    -32.88795126	     -7.37856666	     22.23830531	     33.66566141	     39.65346841	      1.79113720	     -0.36278644	    -29.45182008	     -4.36018639	      4.71794377	    -10.35306596	     12.17815314	     -2.68028391	      6.17818531
      4.70000000	     -9.29233676	      2.38366198	     -6.29466882	     -0.99810198	     -0.05088043	     -0.28268232	     -3.71116086	     -4.25167582	     -1.33294133	    -34.11106023	     -9.37687026	     22.88610946	     34.61480053	     39.50662249	      2.31712966	     -0.21311423	    -30.10326446	     -4.13840949	      4.21724629	    -10.24186661	     12.37567933	     -3.07967218	      6.21713336
      4.70500000	     -9.29434658	      2.72445558	     -6.25947839	     -0.99057639	     -0.05100275	     -0.28323433	     -3.25616557	     -4.89237561	     -1.66708914	    -35.38799948	    -11.41534865	     23.37094318	     35.31855926	     39.32504351	      2.83790857	     -0.09310760	    -30.67769091	     -3.81576376	      3.77922470	    -10.03627856	     12.57176831	     -3.47181210	      6.26759191
      4.71000000	     -9.27303114	      3.02373197	     -6.22774366	     -0.98318790	     -0.05106813	     -0.28366824	     -2.77295276	     -5.44673436	     -1.90675075	    -36.76372555	    -13.35738776	     23.61619954	     35.24584281	     39.09178048	      3.29126382	     -0.04710729	    -31.21546595	     -3.30000658	      3.55928363	     -9.77625541	     12.72027701	     -3.83766375	      6.31134467
      4.71500000	     -9.35183619	      3.41440874	     -6.21190610	     -0.97588917	     -0.05114974	     -0.28434169	     -2.11232857	     -6.11546794	     -2.05497919	    -38.15381497	    -15.36786139	     23.95401466	     35.67203126	     38.90479902	      3.85909822	      0.05767574	    -31.60395539	     -2.92468003	      3.08195003	     -9.52349875	     12.98227358	     -4.23171920	      6.39032240
      4.72000000	     -9.35139588	      3.75073795	     -6.15605517	     -0.96869911	     -0.05111597	     -0.28488234	     -1.51357608	     -6.68277312	     -2.19955150	    -39.59271839	    -17.26889257	     23.93923338	     35.41353306	     38.61263089	      4.35785557	      0.06563514	    -31.96988793	     -2.31922859	      2.94498028	     -9.22967383	     13.13462814	     -4.61589923	      6.39572731
